<svg xmlns="http://www.w3.org/2000/svg" width="960" height="540" viewBox="0 0 960 540">
  <defs>
    <linearGradient id="bg" x1="0" y1="0" x2="1" y2="1">
      <stop offset="0" stop-color="#071114"/>
      <stop offset=".48" stop-color="#111018"/>
      <stop offset="1" stop-color="#07150f"/>
    </linearGradient>
    <linearGradient id="floor" x1="0" y1="0" x2="0" y2="1">
      <stop offset="0" stop-color="#112a26" stop-opacity=".4"/>
      <stop offset="1" stop-color="#08100f" stop-opacity=".95"/>
    </linearGradient>
    <filter id="softGlow" x="-20%" y="-20%" width="140%" height="140%">
      <feGaussianBlur stdDeviation="3" result="blur"/>
      <feMerge>
        <feMergeNode in="blur"/>
        <feMergeNode in="SourceGraphic"/>
      </feMerge>
    </filter>
  </defs>
  <rect width="960" height="540" fill="url(#bg)"/>
  <g opacity=".96">
    <rect x="70" y="300" width="74" height="164" fill="#18101b"/>
    <rect x="158" y="246" width="98" height="218" fill="#102421"/>
    <rect x="270" y="313" width="109" height="151" fill="#141d24"/>
    <rect x="414" y="222" width="74" height="242" fill="#1b1320"/>
    <rect x="500" y="310" width="84" height="154" fill="#112521"/>
    <rect x="598" y="244" width="113" height="220" fill="#1b1320"/>
    <rect x="756" y="285" width="74" height="179" fill="#102522"/>
    <rect x="842" y="239" width="112" height="225" fill="#151d25"/>
    <rect x="858" y="204" width="75" height="260" fill="#1a1220"/>
  </g>
  <g opacity=".55">
    <path d="M52 372h111M76 405h91M83 436h72M172 262h67M170 292h70M169 322h71M169 352h70M169 382h72M286 333h72M286 365h72M286 396h72M431 242h44M431 272h44M431 302h44M431 332h44M431 362h44M514 329h54M514 361h54M514 393h54M615 269h79M615 300h79M615 331h79M615 362h79M615 393h79M771 314h42M771 344h42M771 374h42M771 404h42M873 224h43M873 254h43M873 284h43M873 314h43M873 344h43M873 374h43" stroke="#2ee6a6" stroke-width="4"/>
    <path d="M74 318h62M74 348h62M74 378h62M74 408h62M430 390h44M612 423h87M858 407h78M858 437h78" stroke="#ff466d" stroke-width="4"/>
  </g>
  <g opacity=".22" filter="url(#softGlow)">
    <path d="M240 254 356 456H152Z" fill="#2ee6a6"/>
    <path d="M816 250 698 456h210Z" fill="#ff466d"/>
  </g>
  <path d="M0 456h960v84H0z" fill="url(#floor)"/>
  <g opacity=".2" stroke="#2ee6a6" stroke-width="1">
    <path d="M480 274 0 540M480 274 120 540M480 274 240 540M480 274 360 540M480 274 480 540M480 274 600 540M480 274 720 540M480 274 840 540M480 274 960 540"/>
  </g>
  <g opacity=".14" stroke="#79f6ff" stroke-width="1">
    <path d="M0 484h960M0 512h960M84 456l-54 84M183 456l-20 84M282 456l14 84M381 456l48 84M579 456l-48 84M678 456l-14 84M777 456l20 84M876 456l54 84"/>
  </g>
</svg>
