<svg xmlns="http://www.w3.org/2000/svg" width="400" height="80" viewBox="0 0 400 80">
  <g transform="translate(0 0)">
    <circle cx="40" cy="40" r="8" fill="#fff"/>
  </g>
  <g transform="translate(80 0)">
    <circle cx="40" cy="40" r="12" fill="#ffd36a"/>
    <path d="M40 7v18M40 55v18M7 40h18M55 40h18" stroke="#fff" stroke-width="5" stroke-linecap="round"/>
  </g>
  <g transform="translate(160 0)">
    <circle cx="40" cy="40" r="18" fill="none" stroke="#ffd36a" stroke-width="8"/>
    <path d="M40 2v20M40 58v20M2 40h20M58 40h20M13 13l14 14M53 53l14 14M67 13 53 27M27 53 13 67" stroke="#fff" stroke-width="4" stroke-linecap="round"/>
  </g>
  <g transform="translate(240 0)">
    <circle cx="40" cy="40" r="25" fill="none" stroke="#ff466d" stroke-width="5" opacity=".9"/>
    <path d="M40 5v15M40 60v15M5 40h15M60 40h15M15 15l11 11M54 54l11 11M65 15 54 26M26 54 15 65" stroke="#ffd36a" stroke-width="4" stroke-linecap="round"/>
  </g>
  <g transform="translate(320 0)" opacity=".65">
    <circle cx="40" cy="40" r="31" fill="none" stroke="#79f6ff" stroke-width="4"/>
    <path d="M10 40h12M58 40h12M40 10v12M40 58v12" stroke="#fff" stroke-width="3" stroke-linecap="round"/>
  </g>
</svg>
